<svg id="Capa_1" enable-background="new 0 0 512 512" height="512" viewBox="0 0 512 512" width="512" xmlns="http://www.w3.org/2000/svg"><g><path d="m512 256c0 45.101-11.663 87.478-32.137 124.279-.762 1.37-7.779 2.6-8.565 3.954-4.31 7.422-8.982 14.608-13.993 21.534-.997 1.378 4.236 2.877 3.212 4.233-46.723 61.952-120.943 102-204.517 102s-157.794-40.048-204.517-102c-.78-1.034 2.878-3.656 2.113-4.702-5.497-7.523-10.594-15.358-15.259-23.472-.65-1.13-5.721-.685-6.354-1.826-5.345-9.636-10.087-19.653-14.173-30-.515-1.304 13.67-39.545 13.67-60 0-28.479-27.712-78.042-27.357-80 3.146-17.338 8.038-34.067 14.487-50 .843-2.082 9.581-5.924 10.476-7.979 12.999-29.82 26.28-52.273 49.019-74.892 1.525-1.517.434-5.651 1.997-7.13 45.867-43.39 107.775-69.999 175.898-69.999 141.385 0 256 114.615 256 256z" fill="#1380e2"/><path d="m289.117 58.5c114.494 0 207.309 92.815 207.309 207.309s-92.815 207.309-207.309 207.309-207.309-92.815-207.309-207.309 92.816-207.309 207.309-207.309z" fill="#3493f8"/><path d="m228.719 445c0 8.284-6.716 15-15 15h-90c-8.284 0-15-6.716-15-15s6.716-15 15-15h5.115c5.521-.002 9.995-4.479 9.995-10 0-5.523-4.477-10-10-10h-77.346c-7.169-9.506-13.691-19.528-19.5-30h149.737c8.284 0 15 6.716 15 15s-6.716 15-15 15h-12.89c-5.523 0-10 4.477-10 10 0 5.521 4.475 9.998 9.995 10h44.895c8.284 0 14.999 6.716 14.999 15zm251.14-65h-144.969c-8.284 0-15 6.716-15 15s6.716 15 15 15h125.628c7.106-9.422 13.575-19.35 19.345-29.721-.002-.093-.003-.186-.004-.279zm-204.969-310h-194.788c-26.469 25.041-47.597 55.67-61.493 90h126.281c8.284 0 15-6.716 15-15s-6.716-15-15-15h-64c-8.284 0-15-6.716-15-15s6.716-15 15-15h194c8.284 0 15-6.716 15-15s-6.716-15-15-15z" fill="#55a4f9"/><path d="m210 280c0 38.66-31.34 70-70 70h-122.191c-11.494-29.101-17.809-60.813-17.809-94 0-15.704 1.414-31.077 4.122-46h135.878c38.66 0 70 31.34 70 70z" fill="#86befb"/><path d="m512 215c0 74.558-60.441 135-135 135-24.389 0-47.267-6.468-67.013-17.781-17.253 11.246-37.857 17.781-59.987 17.781-18.188 0-35.345-4.415-50.458-12.23-11.251 7.715-24.869 12.23-39.542 12.23h-32c-38.66 0-70-31.34-70-70 0-38.66 31.34-70 70-70h16.141c13.059-46.17 55.508-80 105.859-80 7.035 0 13.915.661 20.583 1.923 24.708-31.606 63.19-51.923 106.417-51.923 74.559 0 135 60.442 135 135z" fill="#a7d0fc"/><path d="m496.859 155.5c-13.059 46.17-55.508 80-105.859 80-7.035 0-13.915-.661-20.583-1.923-24.708 31.606-63.19 51.923-106.417 51.923-53.204 0-97.865-30.778-119.859-75.5 13.059-46.17 55.508-80 105.859-80 7.035 0 13.915.661 20.583 1.923 24.708-31.606 63.19-51.923 106.417-51.923 53.204 0 99.219 30.778 121.214 75.5z" fill="#c8e2fd"/><path d="m455.295 205.955c0 52.632-42.819 95.451-95.451 95.451-2.762 0-5-2.238-5-5s2.238-5 5-5c47.118 0 85.451-38.333 85.451-85.451 0-37.144-30.218-67.361-67.36-67.361-29.163 0-52.89 23.726-52.89 52.889 0 22.779 18.532 41.312 41.312 41.312 17.672 0 32.049-14.377 32.049-32.049 0-13.586-11.054-24.64-24.64-24.64-2.762 0-5-2.238-5-5s2.238-5 5-5c19.101 0 34.64 15.539 34.64 34.64 0 23.186-18.863 42.049-42.049 42.049-28.293 0-51.312-23.019-51.312-51.312 0-34.677 28.212-62.889 62.89-62.889 42.656 0 77.36 34.704 77.36 77.361zm-125.295 88.045h-190c-2.762 0-5 2.238-5 5s2.238 5 5 5h190c2.762 0 5-2.238 5-5s-2.238-5-5-5zm-130-50h110c2.762 0 5-2.238 5-5s-2.238-5-5-5h-110c-2.762 0-5 2.238-5 5s2.238 5 5 5zm115 25c0-2.762-2.238-5-5-5h-190c-2.762 0-5 2.238-5 5s2.238 5 5 5h190c2.762 0 5-2.238 5-5zm-225-5h-70c-2.762 0-5 2.238-5 5s2.238 5 5 5h70c2.762 0 5-2.238 5-5s-2.238-5-5-5zm280 10c.148 0 .295-.007.44-.02 13.051-.418 25.098-7.596 31.656-18.944 1.382-2.392.563-5.449-1.827-6.831-2.393-1.382-5.451-.563-6.831 1.827-4.979 8.616-14.253 13.968-24.205 13.968h-29.233c-2.762 0-5 2.238-5 5s2.238 5 5 5z" fill="#fff"/></g></svg>